<svg xmlns="http://www.w3.org/2000/svg" xmlns:xlink="http://www.w3.org/1999/xlink" preserveAspectRatio="xMidYMid" width="625.624" height="185.938" viewBox="0 0 312.812 92.969">
  <defs>
    <style>
      .cls-1 {
        fill: #107888;
        fill-rule: evenodd;
      }
    </style>
  </defs>
  <path d="M302.319,44.239 L307.587,57.911 L296.614,57.911 L291.326,44.239 L288.525,44.239 L270.850,44.239 L265.642,57.911 L254.663,57.911 L276.683,0.609 L285.570,0.609 L298.508,34.306 L308.975,34.306 L312.806,44.239 L302.319,44.239 ZM281.128,17.499 L274.675,34.306 L287.572,34.306 L281.128,17.499 ZM227.770,37.590 L214.988,37.590 L214.988,57.911 L204.688,57.911 L204.688,0.609 L227.770,0.609 C240.513,0.609 245.031,10.609 245.031,19.179 C245.031,30.361 238.242,37.590 227.770,37.590 ZM227.770,10.836 L214.988,10.836 L214.988,27.360 L227.397,27.360 C233.843,27.360 234.806,22.227 234.806,19.179 C234.806,16.665 234.121,10.836 227.770,10.836 ZM205.508,79.419 C205.508,79.660 205.483,79.932 205.456,80.180 C205.435,80.374 205.287,81.721 204.010,82.552 C203.621,82.801 203.250,82.944 202.494,83.194 C203.427,83.340 204.305,83.492 205.238,84.298 C205.948,84.911 206.657,85.965 206.657,87.610 C206.657,88.807 206.168,89.839 205.924,90.255 C205.798,90.429 205.530,90.820 205.040,91.209 C203.695,92.363 202.101,92.588 200.733,92.656 L191.251,92.656 C190.956,92.656 190.810,92.630 190.686,92.462 C190.661,92.415 190.614,92.341 190.614,92.195 C190.614,92.022 190.785,91.850 190.810,91.827 C191.024,91.607 191.494,91.409 192.060,91.014 C193.068,90.355 193.138,90.059 193.185,89.325 L193.185,78.463 C193.185,78.385 193.185,78.119 193.035,77.847 C192.794,77.385 192.180,77.013 191.812,76.767 C191.127,76.351 190.614,76.159 190.614,75.738 C190.614,75.474 190.785,75.298 191.053,75.298 L200.537,75.298 C200.776,75.325 201.022,75.348 201.244,75.348 C203.250,75.542 204.305,76.376 204.869,77.235 C205.508,78.211 205.508,79.050 205.508,79.419 ZM196.101,89.325 C196.101,89.765 196.126,89.914 196.249,90.108 C196.562,90.627 197.249,90.599 197.668,90.599 C198.845,90.599 200.974,90.748 202.121,89.914 C202.614,89.570 202.880,89.129 202.958,88.956 C203.104,88.688 203.301,88.123 203.301,87.438 C203.301,87.315 203.274,86.429 202.880,85.767 C202.861,85.719 202.591,85.326 202.270,85.082 C202.173,85.011 202.076,84.956 201.981,84.888 C201.781,84.762 201.632,84.689 201.461,84.638 C200.828,84.417 199.652,84.397 199.627,84.397 L196.101,84.397 L196.101,89.325 ZM201.930,78.265 C201.829,78.170 201.586,77.921 201.222,77.750 C200.508,77.408 199.778,77.330 198.721,77.330 C198.379,77.330 197.909,77.356 197.446,77.408 C197.084,77.456 196.663,77.531 196.418,77.821 C196.150,78.119 196.126,78.509 196.126,78.852 L196.126,82.359 L199.213,82.359 C199.530,82.336 200.630,82.359 201.512,81.694 C202.321,81.084 202.445,80.423 202.445,79.738 C202.445,79.660 202.494,78.930 201.930,78.265 ZM167.314,37.590 L154.533,37.590 L154.533,57.911 L144.237,57.911 L144.237,0.609 L167.314,0.609 C180.053,0.609 184.576,10.609 184.576,19.179 C184.576,30.361 177.794,37.590 167.314,37.590 ZM167.314,10.836 L154.533,10.836 L154.533,27.360 L166.933,27.360 C173.384,27.360 174.354,22.227 174.354,19.179 C174.354,16.665 173.664,10.836 167.314,10.836 ZM144.951,85.595 C145.077,85.374 145.248,85.351 145.368,85.351 C145.761,85.351 145.835,85.767 145.835,85.866 C145.835,86.062 145.785,86.283 145.761,86.479 C145.711,86.848 145.662,87.237 145.639,87.610 C145.488,88.957 145.324,90.329 145.174,91.676 C145.147,92.118 145.101,92.462 145.026,92.610 C144.903,92.882 144.607,92.905 144.512,92.905 C144.467,92.905 144.387,92.905 144.292,92.882 C144.166,92.831 144.069,92.755 143.947,92.707 C143.775,92.655 143.656,92.655 143.456,92.655 L131.992,92.655 C131.773,92.630 131.578,92.610 131.453,92.435 C131.383,92.340 131.383,92.221 131.383,92.172 C131.383,91.828 131.773,91.676 132.066,91.510 L132.799,91.066 C133.170,90.819 133.370,90.673 133.512,90.523 C133.957,90.089 133.931,89.544 133.957,89.326 L133.957,78.875 C133.931,78.070 133.861,77.847 133.220,77.357 C132.925,77.136 132.261,76.721 131.922,76.551 C131.650,76.399 131.307,76.230 131.307,75.860 C131.307,75.738 131.350,75.643 131.350,75.614 C131.481,75.422 131.650,75.371 132.046,75.324 L138.733,75.324 C138.778,75.324 139.442,75.276 139.442,75.838 C139.417,76.179 139.026,76.351 138.486,76.698 C137.998,76.993 137.778,77.136 137.553,77.331 C136.942,77.820 136.890,78.118 136.847,78.903 L136.847,88.857 C136.870,89.372 136.920,89.619 137.040,89.865 C137.460,90.599 138.608,90.673 139.316,90.673 C139.615,90.673 140.445,90.673 141.229,90.377 C142.451,89.913 143.505,88.735 144.119,87.632 C144.434,87.042 144.636,86.503 144.706,86.283 C144.804,85.964 144.879,85.695 144.951,85.595 ZM93.949,58.670 C77.832,58.670 65.209,45.803 65.209,29.377 C65.209,12.905 77.832,0.001 93.949,0.001 C110.106,0.001 122.763,12.905 122.763,29.377 C122.763,45.803 110.106,58.670 93.949,58.670 ZM93.949,10.240 C83.568,10.240 75.435,18.640 75.435,29.377 C75.435,40.069 83.568,48.442 93.949,48.442 C104.368,48.442 112.541,40.069 112.541,29.377 C112.541,18.640 104.368,10.240 93.949,10.240 ZM27.833,48.443 C32.854,48.443 37.551,46.465 41.068,42.880 L42.936,40.965 L50.064,48.258 L48.287,50.099 C42.921,55.620 35.665,58.671 27.833,58.671 C11.967,58.671 0.005,46.078 0.005,29.377 C0.005,12.624 11.967,0.001 27.833,0.001 C35.611,0.001 42.857,3.051 48.208,8.585 L50.005,10.447 L42.857,17.597 L41.006,15.737 C37.459,12.186 32.783,10.241 27.833,10.241 C17.627,10.241 10.229,18.282 10.229,29.377 C10.229,40.418 17.627,48.443 27.833,48.443 ZM102.923,77.896 C103.037,77.750 103.187,77.630 103.311,77.476 C103.556,77.235 104.043,76.697 104.804,76.205 C105.613,75.666 107.131,74.909 109.458,74.909 C110.367,74.909 111.320,74.981 113.129,75.594 C113.449,75.688 113.643,75.764 113.839,75.764 C114.136,75.764 114.356,75.514 114.403,75.445 C114.605,75.198 114.750,74.909 115.089,74.855 C115.186,74.828 115.335,74.883 115.435,74.926 C115.701,75.101 115.728,75.445 115.728,75.715 C115.728,76.448 115.773,77.210 115.806,77.947 C115.806,78.336 115.806,78.757 115.827,79.147 C115.847,79.641 115.895,80.131 115.895,80.643 C115.895,80.942 115.876,81.182 115.827,81.279 C115.773,81.354 115.682,81.500 115.435,81.500 C114.914,81.500 114.895,80.864 114.771,80.546 C114.649,80.199 114.309,79.267 113.546,78.509 C112.591,77.531 111.248,77.064 109.879,77.064 C108.229,77.064 106.736,77.701 105.710,78.949 C105.466,79.267 105.102,79.786 104.730,80.669 C104.537,81.208 104.412,81.649 104.361,81.869 C104.291,82.285 104.165,82.999 104.165,84.053 C104.165,84.835 104.219,87.216 105.860,89.106 C106.638,90.014 107.378,90.329 107.812,90.501 C108.600,90.796 109.332,90.773 109.654,90.773 C110.041,90.773 110.981,90.780 111.958,90.281 C114.401,89.027 113.744,87.087 113.744,87.087 C113.707,86.943 113.396,86.388 113.851,86.084 C114.160,85.877 114.893,85.794 115.625,86.357 C115.757,86.456 116.027,86.715 116.232,87.099 C116.232,87.099 117.104,88.446 115.435,90.599 C115.200,90.901 114.800,91.286 114.111,91.724 C113.942,91.850 113.546,92.098 112.981,92.316 C112.424,92.562 111.048,92.981 109.332,92.981 C107.549,92.981 106.128,92.511 105.543,92.244 C105.314,92.147 104.853,91.896 104.342,91.533 C103.460,90.916 102.843,90.303 102.284,89.420 C102.231,89.325 101.863,88.736 101.667,88.275 C101.129,87.042 100.863,85.521 100.863,84.171 C100.863,81.649 101.596,80.054 102.082,79.170 C102.332,78.735 102.601,78.291 102.923,77.896 ZM158.745,75.298 L165.704,75.298 C165.778,75.298 166.315,75.276 166.288,75.764 C166.288,76.134 165.871,76.308 165.382,76.571 C165.088,76.743 164.770,76.938 164.454,77.187 C164.087,77.456 163.788,77.726 163.693,78.118 C163.669,78.239 163.669,78.437 163.669,78.758 L163.669,85.991 C163.669,86.383 163.669,86.776 163.693,87.162 C163.745,88.561 163.910,89.885 165.751,90.501 C166.018,90.599 166.556,90.773 167.271,90.773 C167.512,90.773 167.761,90.748 168.002,90.722 C168.807,90.648 169.619,90.501 170.379,89.739 C170.622,89.521 170.890,89.226 171.110,88.661 C171.261,88.243 171.314,87.854 171.335,87.042 L171.335,80.277 C171.335,79.758 171.360,79.248 171.335,78.709 C171.335,78.314 171.287,77.995 171.213,77.847 C170.966,77.308 169.741,76.646 169.252,76.351 C169.034,76.231 168.741,76.009 168.741,75.689 C168.741,75.325 169.104,75.298 169.351,75.325 L175.722,75.325 C175.937,75.325 176.459,75.250 176.459,75.764 C176.428,76.107 176.088,76.279 175.551,76.595 C175.501,76.646 174.937,76.992 174.541,77.308 C174.395,77.433 174.002,77.749 173.907,78.142 C173.833,78.386 173.833,79.419 173.833,80.298 L173.833,86.776 C173.808,87.068 173.808,87.362 173.788,87.681 C173.711,88.905 173.565,90.108 172.366,91.287 C171.874,91.776 171.384,92.098 170.869,92.315 C170.085,92.685 168.883,92.981 167.051,92.981 C167.022,92.981 165.454,93.000 164.060,92.588 C163.842,92.511 163.617,92.436 163.129,92.194 C162.837,92.046 161.587,91.461 161.022,89.985 C160.705,89.154 160.727,88.490 160.727,86.847 L160.727,79.858 C160.752,79.394 160.752,78.949 160.727,78.509 C160.727,78.509 160.752,77.972 160.558,77.671 C160.336,77.308 159.846,77.041 159.556,76.867 C159.288,76.698 159.010,76.522 158.745,76.376 C158.349,76.159 158.157,76.009 158.157,75.715 C158.157,75.276 158.670,75.298 158.745,75.298 Z" class="cls-1"/>
</svg>
